<?xml version="1.0" encoding="utf-8"?>
<!-- Generator: Adobe Illustrator 23.0.4, SVG Export Plug-In . SVG Version: 6.00 Build 0)  -->
<svg version="1.1" id="Capa_1" xmlns="http://www.w3.org/2000/svg" xmlns:xlink="http://www.w3.org/1999/xlink" x="0px" y="0px"
	 viewBox="0 0 227.7 227.7" style="enable-background:new 0 0 227.7 227.7;" xml:space="preserve">
<style type="text/css">
	.st0{fill:#FFFFFF;}
</style>
<g>
	<path class="st0" d="M169.3,53.1c-1.2,0-2.4,0-3.6,0.1c-9.8-23.1-33.3-38.8-59.2-38.8c-35.3,0-64.1,28.2-64.1,62.8
		c0,0.1,0,0.2,0,0.4C18.7,79.4,0,98.8,0,122.6c0,24.9,20.6,45.1,46,45.1h123.3c32.2,0,58.4-25.7,58.4-57.3S201.5,53.1,169.3,53.1z
		 M169.3,152.7H46c-17.1,0-31-13.5-31-30.1c0-16.6,13.9-30.1,31-30.1c1.1,0,2.2,0.1,3.7,0.2c2.3,0.3,4.6-0.6,6.2-2.2
		c1.6-1.7,2.4-4,2-6.3c-0.3-2.4-0.5-4.7-0.5-7c0-26.4,22-47.8,49.1-47.8c21.5,0,40.9,14,47,34.1c1.1,3.6,4.7,5.8,8.4,5.2
		c2.4-0.4,4.9-0.6,7.4-0.6c23.9,0,43.4,19,43.4,42.3C212.7,133.7,193.3,152.7,169.3,152.7z"/>
	<path class="st0" d="M47.5,179l-21.5,21.5c-2.9,2.9-2.9,7.7,0,10.6c1.5,1.5,3.4,2.2,5.3,2.2s3.8-0.7,5.3-2.2l21.5-21.5
		c2.9-2.9,2.9-7.7,0-10.6C55.2,176.1,50.5,176.1,47.5,179z"/>
	<path class="st0" d="M93.4,179.1l-21.5,21.5c-2.9,2.9-2.9,7.7,0,10.6c1.5,1.5,3.4,2.2,5.3,2.2s3.8-0.7,5.3-2.2l21.5-21.5
		c2.9-2.9,2.9-7.7,0-10.6C101.1,176.1,96.3,176.1,93.4,179.1z"/>
	<path class="st0" d="M139.2,179.1l-21.5,21.5c-2.9,2.9-2.9,7.7,0,10.6c1.5,1.5,3.4,2.2,5.3,2.2s3.8-0.7,5.3-2.2l21.5-21.5
		c2.9-2.9,2.9-7.7,0-10.6C146.9,176.1,142.1,176.1,139.2,179.1z"/>
	<path class="st0" d="M185.1,179l-21.5,21.5c-2.9,2.9-2.9,7.7,0,10.6c1.5,1.5,3.4,2.2,5.3,2.2c1.9,0,3.8-0.7,5.3-2.2l21.5-21.5
		c2.9-2.9,2.9-7.7,0-10.6C192.7,176.1,188,176.1,185.1,179z"/>
</g>
</svg>
