<?xml version="1.0" encoding="utf-8"?>
<!-- Generator: Adobe Illustrator 23.0.4, SVG Export Plug-In . SVG Version: 6.00 Build 0)  -->
<svg version="1.1" id="Capa_1" xmlns="http://www.w3.org/2000/svg" xmlns:xlink="http://www.w3.org/1999/xlink" x="0px" y="0px"
	 viewBox="0 0 190.4 190.4" style="enable-background:new 0 0 190.4 190.4;" xml:space="preserve">
<style type="text/css">
	.st0{fill:#FFFFFF;}
</style>
<path class="st0" d="M178.2,113.5c0-21.9-34-71.7-37.9-77.3c-1.4-2-3.7-3.2-6.2-3.2c-2.5,0-4.8,1.2-6.2,3.2
	c-1.3,1.9-6.1,8.8-11.8,18.1c-15.4-27-31.7-50.7-31.9-50.9c-1.4-2-3.7-3.2-6.2-3.2S73.4,1.2,72,3.2c-6.1,8.9-59.8,87.5-59.8,121.2
	c0,36.4,29.6,66,66,66c23.5,0,45.4-12.8,57.1-32.9C159,156.9,178.2,137.4,178.2,113.5z M78.1,175.4c-28.1,0-51-22.9-51-51
	c0-21.8,32.5-75.6,50.9-103.5c7,10.6,18.8,29.1,29.2,48.1c-8.9,15.8-17.3,33.5-17.3,44.4c0,19,12.1,35.2,28.9,41.4
	C109.5,167.6,94.3,175.4,78.1,175.4z M134.2,142.5c-16,0-29-13-29-29c0-7.8,7.9-24.1,17.1-40.1c0.2-0.3,0.3-0.5,0.5-0.8
	c3.8-6.5,7.7-12.9,11.5-18.7c13.1,20.2,29,48.4,29,59.6C163.2,129.5,150.2,142.5,134.2,142.5z"/>
</svg>
