<?xml version="1.0" encoding="utf-8"?>
<!-- Generator: Adobe Illustrator 23.0.4, SVG Export Plug-In . SVG Version: 6.00 Build 0)  -->
<svg version="1.1" id="Capa_1" xmlns="http://www.w3.org/2000/svg" xmlns:xlink="http://www.w3.org/1999/xlink" x="0px" y="0px"
	 viewBox="0 0 615.5 615.5" style="enable-background:new 0 0 615.5 615.5;" xml:space="preserve">
<style type="text/css">
	.st0{fill:#828282;}
</style>
<path class="st0" d="M602.5,549.7L418.2,364.4c26.7-37.7,42.5-83.7,42.5-133.5C460.8,103.3,358,0,231.3,0
	C104.5,0,1.8,103.3,1.8,230.8s102.8,230.8,229.5,230.8c49.5,0,95.3-15.9,132.8-42.8l184.3,185.4c7.5,7.5,17.3,11.3,27.1,11.3
	s19.6-3.8,27.1-11.3C617.5,589.2,617.5,564.8,602.5,549.7z M355.9,319.8l-15,21.3l-21.2,15.1c-26.1,18.7-56.7,28.5-88.4,28.5
	c-84.4,0-153-69-153-153.9c0-84.8,68.6-153.9,153-153.9s153,69,153,153.9C384.3,262.8,374.5,293.5,355.9,319.8z"/>
</svg>
