<?xml version="1.0" encoding="utf-8"?>
<!-- Generator: Adobe Illustrator 23.0.4, SVG Export Plug-In . SVG Version: 6.00 Build 0)  -->
<svg version="1.1" id="Capa_1" xmlns="http://www.w3.org/2000/svg" xmlns:xlink="http://www.w3.org/1999/xlink" x="0px" y="0px"
	 viewBox="0 0 168.3 168.3" style="enable-background:new 0 0 168.3 168.3;" xml:space="preserve">
<style type="text/css">
	.st0{fill:#FFFFFF;}
</style>
<path class="st0" d="M159.8,127.9c-1-2.5-3.3-4.2-5.9-4.6c-24.4-3.2-45.4-19.4-54.8-42.1c-9.4-22.7-5.9-49,9-68.5c1.6-2.1,2-5,1-7.4
	s-3.3-4.2-5.9-4.6C99.4,0.2,95.7,0,92,0C81,0,70.2,2.2,59.9,6.4C39.1,15,23,31.2,14.4,51.9c-8.6,20.8-8.6,43.6,0,64.4
	c13.1,31.6,43.6,52,77.8,52c0,0,0,0,0,0c11.1,0,21.9-2.2,32.2-6.4c13.6-5.7,25.6-14.8,34.6-26.5
	C160.5,133.2,160.8,130.4,159.8,127.9z M118.5,148c-8.5,3.5-17.4,5.3-26.4,5.3c-28.1,0-53.2-16.8-63.9-42.7
	c-7.1-17.1-7.1-35.9,0-52.9c7.1-17.1,20.4-30.3,37.4-37.4c7.4-3.1,15.2-4.8,23.1-5.2C77,37.1,75.5,63.6,85.2,87
	c9.7,23.4,29.5,41.1,53.4,48.3C132.7,140.6,125.9,145,118.5,148z"/>
</svg>
