<?xml version="1.0" encoding="utf-8"?>
<!-- Generator: Adobe Illustrator 23.0.4, SVG Export Plug-In . SVG Version: 6.00 Build 0)  -->
<svg version="1.1" id="Capa_1" xmlns="http://www.w3.org/2000/svg" xmlns:xlink="http://www.w3.org/1999/xlink" x="0px" y="0px"
	 viewBox="0 0 226.7 226.7" style="enable-background:new 0 0 226.7 226.7;" xml:space="preserve">
<style type="text/css">
	.st0{fill:#FFFFFF;}
</style>
<g>
	<path class="st0" d="M174.2,91.6c-24,0-43.5,19.5-43.5,43.5c0,20,16.3,36.3,36.3,36.3c4.1,0,7.5-3.4,7.5-7.5s-3.4-7.5-7.5-7.5
		c-11.8,0-21.3-9.6-21.3-21.3c0-15.7,12.8-28.5,28.5-28.5c20.7,0,37.5,16.8,37.5,37.5c0,26.9-21.9,48.8-48.8,48.8H7.5
		c-4.1,0-7.5,3.4-7.5,7.5s3.4,7.5,7.5,7.5h155.4c35.2,0,63.8-28.6,63.8-63.8C226.7,115.1,203.1,91.6,174.2,91.6z"/>
	<path class="st0" d="M7.5,151.6h69.9c23.5,0,42.7-19.1,42.7-42.7c0-19.7-16-35.6-35.6-35.6c-16.6,0-30,13.5-30,30
		c0,14.1,11.4,25.5,25.5,25.5c4.1,0,7.5-3.4,7.5-7.5s-3.4-7.5-7.5-7.5c-5.8,0-10.5-4.7-10.5-10.5c0-8.3,6.7-15,15-15
		c11.4,0,20.6,9.3,20.6,20.6c0,15.3-12.4,27.7-27.7,27.7H7.5c-4.1,0-7.5,3.4-7.5,7.5S3.4,151.6,7.5,151.6z"/>
	<path class="st0" d="M130.4,79.3h52.4c18.1,0,32.9-14.8,32.9-32.9c0-15.2-12.4-27.6-27.6-27.6c-12.9,0-23.4,10.5-23.4,23.4
		c0,11,9,20,20,20c3.6,0,6.5-2.9,6.5-6.5s-2.9-6.5-6.5-6.5c-3.9,0-7-3.1-7-7c0-5.7,4.7-10.4,10.4-10.4c8.1,0,14.6,6.6,14.6,14.6
		c0,11-8.9,19.9-19.9,19.9h-52.4c-3.6,0-6.5,2.9-6.5,6.5C123.9,76.4,126.8,79.3,130.4,79.3z"/>
</g>
</svg>
